<svg id="Layer_1" xmlns="http://www.w3.org/2000/svg" xmlns:xlink="http://www.w3.org/1999/xlink" viewBox="0 0 8000 6000"><image width="8000" height="6000" /><polygon points="3616.83 3893.09 2890.93 2745.47 1412.97 5440 952.01 5162.15 3381.95 768.39 3615.37 768.39 3615.61 1423.85 3135.59 2299.23 3616.34 3059.04 3616.83 3893.09" style="fill:none; stroke:#3c2415; stroke-miterlimit:10; stroke-width:200px;"/><polygon points="4191.66 3893.09 4917.57 2745.47 6395.53 5440 6856.49 5162.15 4426.54 768.39 4193.13 768.39 4192.89 1423.85 4672.91 2299.23 4192.15 3059.04 4191.66 3893.09" style="fill:none; stroke:#3c2415; stroke-miterlimit:10; stroke-width:200px;"/><polygon points="7654 175 7654 713.82 4182.44 710.57 4170.58 5382.89 3636.82 5382.89 3633.43 713.82 175 713.82 175 175 7654 175" style="fill:none; stroke:#3c2415; stroke-miterlimit:10; stroke-width:350px;"/><line x1="3616.82" y1="896.32" x2="1187.92" y2="5304.35" style="fill:none; stroke:#3c2415; stroke-miterlimit:10; stroke-width:100px;"/><line x1="4239.92" y1="972.93" x2="6583.41" y2="5230.18" style="fill:none; stroke:#3c2415; stroke-miterlimit:10; stroke-width:100px;"/><line x1="4945" y1="2281" x2="4206.95" y2="3454.82" style="fill:none; stroke:#3c2415; stroke-miterlimit:10; stroke-width:100px;"/><line x1="2864.89" y1="2282.14" x2="3565.8" y2="3392.79" style="fill:none; stroke:#3c2415; stroke-miterlimit:10; stroke-width:100px;"/></svg>