<svg width="136.95" height="22.98" viewBox="0 0 136.95 22.98" fill="none" xmlns="http://www.w3.org/2000/svg">
<path d="m9.36,21.68h-.07c-.13-.04-.2-.13-.2-.27,0-.15.04-.35.12-.6l.07-.28c.12-.49.27-1.03.44-1.63.35-1.15.53-2,.53-2.56s-.21-.97-.62-1.27c-.41-.3-1.09-.58-2.06-.85-1.24-.39-2.02-.87-2.33-1.42-.14-.25-.21-.51-.21-.78,0-.32.14-.73.42-1.21.28-.49.81-1.05,1.59-1.7.78-.64,1.65-1.25,2.6-1.83.95-.58,1.86-1.09,2.72-1.53.86-.44,1.55-.77,2.07-.99,4.47-1.9,8.77-3.01,12.89-3.32.5-.03.95-.04,1.35-.04.17,0,.41,0,.73.02.32.01.52.06.6.16.06.04.09.11.09.21,0,.03,0,.1-.02.2-.01.1-.08.21-.19.32-.12.12-.26.18-.43.18h-.06c-.34-.04-.7-.07-1.09-.07-.98,0-2.29.16-3.91.48-1.63.32-3.51.85-5.67,1.57s-4.19,1.55-6.11,2.47c-1.92.92-3.49,1.85-4.71,2.8-1.22.95-1.84,1.82-1.88,2.62,0,.17.07.3.22.39s.33.17.57.23c.23.06.5.11.78.16.32.05.65.11.98.19,1.46.37,2.44.85,2.94,1.46l.39.5,1.23-2.79c.37-.84.67-1.51.91-2s.43-.86.58-1.1c.15-.24.3-.39.43-.46.13-.07.27-.1.44-.1.33,0,.49.09.49.28,0,.12-.05.32-.16.6-.1.28-.33.77-.66,1.46-.67,1.4-1.51,3.25-2.52,5.55-1.07,2.43-1.7,3.81-1.88,4.14-.12.21-.22.34-.31.41-.09.07-.19.12-.31.16l-.04.02c-.33.14-.57.21-.71.21Z" style="fill:#42210b;"/><path d="m23.33,15.81c-.52,0-.98-.08-1.37-.23s-.68-.4-.85-.74c-.15-.33-.23-.79-.25-1.4-.15.06-.34.17-.59.32-.2.12-.43.25-.67.37-.25.13-.5.24-.78.33-.27.09-.55.14-.82.14-.4,0-.76-.12-1.08-.35-.25-.2-.37-.42-.37-.67,0-.32.15-.65.44-1s.62-.65.98-.92c.36-.27.67-.46.92-.58.25-.11.53-.2.84-.26.31-.06.61-.09.89-.09s.55.03.78.1c.22.07.34.18.36.34,0,.11-.07.18-.21.24-.14.05-.37.1-.71.13-.41.05-.81.2-1.21.44-.4.24-.74.5-1.01.78s-.41.48-.41.62c0,.07.05.1.14.1.14,0,.34-.07.59-.2.26-.13.54-.29.85-.47.39-.24.79-.46,1.19-.65s.74-.3,1.02-.3c.39,0,.58.25.58.75,0,.14-.01.3-.04.48-.04.21-.05.4-.05.57,0,.39.1.68.29.86.19.18.51.27.94.27h.07c1.18-.06,2.47-.36,3.87-.91,1.39-.55,2.57-1.12,3.53-1.73l.38-.25c.37-.24.65-.42.85-.53.2-.11.38-.16.56-.16.11,0,.23.02.37.06.1.03.16.09.16.17s-.05.17-.16.27c-1.5,1.19-3.08,2.14-4.75,2.85s-3.26,1.12-4.76,1.23c-.17.01-.33.02-.48.02Z" style="fill:#42210b;"/><path d="m34.05,15.96c-.13,0-.25,0-.36-.02-.42-.07-.75-.22-.99-.45-.24-.24-.4-.53-.5-.88-.09-.35-.14-.73-.14-1.13,0-.55.06-1.1.18-1.65s.24-.98.37-1.32c.34-.95.81-2.09,1.41-3.41.61-1.32,1.2-2.54,1.79-3.66.58-1.11,1.01-1.83,1.29-2.15.1-.11.24-.19.41-.25.17-.06.33-.08.49-.08.22,0,.39.06.5.18,0,.01.01.03.01.06,0,.11-.06.32-.19.62-.13.31-.3.65-.5,1.02-.71,1.31-1.43,2.73-2.14,4.26-.71,1.53-1.21,2.7-1.49,3.51-.32,1.02-.48,1.89-.48,2.62,0,.53.08.96.25,1.28.16.32.4.48.72.48,1.11,0,3.08-1.15,5.89-3.45.3-.24.49-.38.56-.43.07-.05.14-.07.21-.07.1,0,.19.05.27.14s.11.19.11.29c0,.25-.49.76-1.48,1.54-.6.47-1.26.92-2,1.37s-1.47.82-2.21,1.13-1.4.45-1.97.45Z" style="fill:#42210b;"/><path d="m46.32,14.72c-.71,0-1.18-.42-1.41-1.25-.1-.38-.18-.73-.22-1.05-.1-.5-.21-.75-.32-.75-.09,0-.32.13-.69.39-.37.26-.76.55-1.16.88s-.73.62-.98.87c-.37.38-.7.57-.99.57h-.07c-.2-.03-.36-.09-.47-.17-.11-.09-.16-.22-.16-.39v-.07c0-.52.69-2.01,2.04-4.48.5-.95.9-1.67,1.19-2.18.29-.5.53-.86.7-1.05s.33-.31.47-.33c.13-.03.26-.04.38-.04.03,0,.08,0,.16,0s.15.03.21.08v.04c.01.12-.11.44-.35.97-.24.53-.59,1.21-1.04,2.05-.45.83-.81,1.53-1.08,2.08-.27.56-.41.86-.41.92l.8-.38c.33-.17.65-.32.96-.46.36-.16.69-.24.97-.24.71,0,1.14.5,1.28,1.51.04.25.1.5.18.74s.16.41.25.52.21.15.39.15c.36,0,.9-.2,1.62-.6.71-.4,1.46-.89,2.25-1.45l.21-.15c.2-.12.39-.18.58-.18.15,0,.27.02.36.07.03.02.05.05.05.08,0,.07-.06.17-.19.32-.23.27-.66.65-1.29,1.14-.89.68-1.76,1.18-2.61,1.5-.61.22-1.15.33-1.61.33Z" style="fill:#42210b;"/><path d="m55.73,15.81c-.52,0-.98-.08-1.37-.23s-.68-.4-.85-.74c-.15-.33-.23-.79-.25-1.4-.15.06-.34.17-.59.32-.2.12-.43.25-.67.37-.25.13-.5.24-.78.33-.27.09-.55.14-.82.14-.4,0-.76-.12-1.08-.35-.25-.2-.37-.42-.37-.67,0-.32.15-.65.44-1s.62-.65.98-.92c.36-.27.67-.46.92-.58.25-.11.53-.2.84-.26.31-.06.61-.09.89-.09s.55.03.78.1c.22.07.34.18.36.34,0,.11-.07.18-.21.24-.14.05-.37.1-.71.13-.41.05-.81.2-1.21.44-.4.24-.74.5-1.01.78s-.41.48-.41.62c0,.07.05.1.14.1.14,0,.34-.07.59-.2.26-.13.54-.29.85-.47.39-.24.79-.46,1.19-.65s.74-.3,1.02-.3c.39,0,.58.25.58.75,0,.14-.01.3-.04.48-.04.21-.05.4-.05.57,0,.39.1.68.29.86.19.18.51.27.94.27h.07c1.18-.06,2.47-.36,3.87-.91,1.39-.55,2.57-1.12,3.53-1.73l.38-.25c.37-.24.65-.42.85-.53.2-.11.38-.16.56-.16.11,0,.23.02.37.06.1.03.16.09.16.17s-.05.17-.16.27c-1.5,1.19-3.08,2.14-4.75,2.85s-3.26,1.12-4.76,1.23c-.17.01-.33.02-.48.02Z" style="fill:#42210b;"/><path d="m77.4,22.24c-.1,0-.2-.03-.32-.08-.02,0-.03-.08-.03-.24v-1.39c.01-1.38-.09-2.57-.28-3.59-.09-.43-.24-.88-.44-1.36s-.41-.9-.63-1.26c-.22-.35-.4-.56-.55-.62-.08,0-.29.23-.63.68-.34.45-.73,1.02-1.16,1.7l-.86,1.24c-.39.58-.68.97-.87,1.18-.12.13-.25.23-.4.3l-.05.02c-.25-.06-.37-.19-.37-.38s.12-.45.35-.78c.23-.33.67-1,1.32-2.02.59-.93.88-1.43.88-1.51,0-.02-.02-.02-.07-.02-.08,0-.22.02-.42.05-.5.07-.91.1-1.22.1-.25,0-.49-.02-.72-.07-.23-.05-.41-.14-.55-.28-.14-.14-.21-.33-.21-.58,0-.29.15-.56.46-.81.31-.25.7-.44,1.19-.59s1.01-.22,1.56-.22c.24,0,.48.02.74.05.13.02.24.03.35.03.15,0,.29-.05.42-.15.13-.1.3-.29.51-.59.27-.38.72-1.05,1.36-2.02,1.38-2.03,2.76-3.95,4.13-5.77.59-.78.96-1.24,1.1-1.36.26-.18.74-.37,1.43-.57.27-.08.48-.12.61-.12.05,0,.08,0,.1.03s.03.06.03.13c0,.28-.13.9-.38,1.85s-.6,2.07-1.02,3.38c-.25.78-.46,1.44-.63,2s-.25.88-.25.95c.07,0,.39-.11.97-.32.73-.28,2.11-.82,4.15-1.64l.76-.3c.82-.32,1.37-.48,1.64-.48.18,0,.26.06.26.17,0,.08-.02.16-.05.25-.05.08-.45.29-1.2.64-.75.35-1.67.76-2.77,1.22-1.11.45-2.05.86-2.83,1.21-.78.35-1.22.57-1.32.65l-.1.29c-1.27,3.68-2.17,6.55-2.71,8.61-.19.75-.38,1.33-.56,1.75-.19.42-.42.63-.7.63Zm-5.01-8.89c.25,0,.49-.03.74-.08.46-.11.68-.23.68-.35,0-.09-.12-.17-.36-.22-.24-.05-.5-.07-.78-.07-.26,0-.49.02-.7.07-.21.05-.31.12-.31.23,0,.28.24.42.73.42Zm3.84-1.29s.25-.08.63-.24c.39-.16.83-.34,1.32-.55.49-.21.94-.4,1.35-.58.41-.18.67-.29.79-.34l.32-1.06c.43-1.39.8-2.69,1.13-3.88.33-1.19.49-1.88.49-2.05,0-.03-.01-.05-.03-.05-.23,0-1.69,1.98-4.36,5.95-.65.94-1.09,1.6-1.34,2-.25.39-.37.64-.37.73,0,.04.02.07.06.07h.02Zm2.18,4.21c.15-.33.39-1.02.71-2.08.25-.8.51-1.62.8-2.45h-.03c-.19,0-.76.18-1.71.53s-1.42.57-1.42.64c.58.67,1,1.34,1.25,2.03.25.69.38,1.13.4,1.33Z" style="fill:#42210b;"/><path d="m89.48,14.72c-.71,0-1.18-.42-1.41-1.25-.1-.38-.18-.73-.22-1.05-.1-.5-.21-.75-.32-.75-.09,0-.32.13-.69.39-.37.26-.76.55-1.16.88s-.73.62-.98.87c-.37.38-.7.57-.99.57h-.07c-.2-.03-.36-.09-.47-.17-.11-.09-.16-.22-.16-.39v-.07c0-.52.69-2.01,2.04-4.48.5-.95.9-1.67,1.19-2.18.29-.5.53-.86.7-1.05s.33-.31.47-.33c.13-.03.26-.04.38-.04.03,0,.08,0,.16,0s.15.03.21.08v.04c.01.12-.11.44-.35.97-.24.53-.59,1.21-1.04,2.05-.45.83-.81,1.53-1.08,2.08-.27.56-.41.86-.41.92l.8-.38c.33-.17.65-.32.96-.46.36-.16.69-.24.97-.24.71,0,1.14.5,1.28,1.51.04.25.1.5.18.74s.16.41.25.52.21.15.39.15c.36,0,.9-.2,1.62-.6.71-.4,1.46-.89,2.25-1.45l.21-.15c.2-.12.39-.18.58-.18.15,0,.27.02.36.07.03.02.05.05.05.08,0,.07-.06.17-.19.32-.23.27-.66.65-1.29,1.14-.89.68-1.76,1.18-2.61,1.5-.61.22-1.15.33-1.61.33Z" style="fill:#42210b;"/><path d="m107.4,16.17c-1.04,0-1.79-.28-2.24-.83-.48-.59-.73-1.42-.73-2.49,0-.46-.02-.77-.06-.93-.04-.16-.13-.24-.27-.24-.4,0-1.53.52-3.41,1.57-.9.51-1.59.77-2.09.77-.31,0-.51-.1-.61-.31-.04-.09-.07-.33-.09-.71-.02-.24-.05-.45-.07-.65-.03-.19-.08-.29-.15-.29-.06,0-.26.09-.59.28-.33.19-.72.42-1.15.7-1.09.65-1.87.97-2.34.97-.25,0-.38-.1-.39-.31,0-.08.06-.27.18-.57.12-.3.27-.63.44-.99.17-.36.32-.63.44-.81.12-.18.23-.3.35-.36.11-.06.25-.09.4-.09.2,0,.34.03.42.09s.11.14.11.25c0,.14-.04.31-.12.5l-.09.33,1.06-.48c.74-.33,1.37-.5,1.88-.5.4,0,.71.1.94.3.23.2.34.49.34.88,0,.12,0,.21.03.27s.06.09.13.09c.18,0,.62-.22,1.32-.65,1.56-.84,2.77-1.26,3.66-1.26.51,0,.88.15,1.09.44.08.13.15.35.23.67.08.32.13.65.17,1.01.07.83.23,1.4.47,1.71.25.31.67.46,1.26.46.94,0,2.27-.3,4-.92,1.73-.61,3.49-1.4,5.29-2.37,1.16-.65,1.91-.98,2.25-.98.15,0,.25.05.32.16.04.07.06.14.06.21,0,.16-.14.35-.43.57-.28.22-.75.5-1.39.85-2.17,1.18-4.18,2.08-6.04,2.72-1.86.63-3.39.95-4.58.95Z" style="fill:#42210b;"/><path d="m119.23,15.22h-.13c-.42,0-.8-.08-1.13-.23-.33-.15-.55-.45-.65-.89-.03-.13-.04-.27-.04-.41,0-.41.12-.85.36-1.31.48-.88,1.11-1.51,1.88-1.89.42-.21.81-.32,1.18-.32.32,0,.61.07.88.22.35.19.53.45.53.77,0,.52-.45,1.2-1.35,2.05-.42.41-.63.65-.63.72,0,.04.04.07.12.07.29,0,.87-.16,1.71-.47s1.74-.68,2.69-1.1c.94-.42,1.75-.83,2.41-1.22.18-.09.32-.14.42-.14.04,0,.08,0,.12.02.08.04.12.12.12.22,0,.03-.01.1-.03.2-.02.1-.12.24-.28.41-.49.4-1.23.85-2.23,1.35-1,.5-2.04.94-3.13,1.31-1.09.37-2.02.58-2.8.61Zm-.17-1.96c.13,0,.34-.15.64-.46.28-.28.51-.57.68-.87.12-.22.18-.38.18-.48s-.07-.16-.22-.16c-.12,0-.28.07-.49.2-.21.13-.4.35-.58.67-.22.44-.34.75-.34.93,0,.12.04.17.13.17Z" style="fill:#42210b;"/><path d="m125.33,16.62c-.34,0-.62-.11-.85-.34-.1-.13-.15-.31-.15-.53,0-.27.11-.68.32-1.24.21-.56.6-1.2,1.16-1.92.56-.72,1.14-1.26,1.75-1.61.58-.3,1.03-.45,1.35-.45.34,0,.5.11.5.33,0,.07-.04.15-.1.26-.07.11-.21.16-.43.16-.16,0-.4.13-.71.39-.32.26-.63.57-.95.94-.32.37-.58.73-.77,1.08-.29.53-.48.98-.58,1.35-.04.15-.06.27-.06.37,0,.12.04.18.13.18.27,0,.62-.23,1.07-.7.76-.8,1.75-2.11,2.94-3.94.76-1.16,1.46-2.3,2.11-3.42.97-1.7,1.6-2.76,1.91-3.16.18-.25.35-.42.5-.51.15-.09.32-.13.52-.13.22,0,.35.04.38.12,0,.02.01.05.01.08,0,.09-.04.21-.12.35-.32.61-.94,1.76-1.87,3.44-.63,1.11-1.1,1.97-1.41,2.56-.31.59-.51,1.04-.59,1.35-.09.31-.13.62-.13.93.03.42.13.69.32.81.15.09.32.14.53.14h.18c.61-.09,1.17-.29,1.67-.62.5-.32.98-.68,1.43-1.06.27-.22.53-.42.78-.62.2-.13.35-.2.47-.2.03,0,.08.01.16.03.08.02.13.12.17.3,0,.16-.22.45-.66.87-.44.42-.94.84-1.5,1.25s-1.03.72-1.42.92c-.27.12-.63.24-1.06.34-.29.07-.57.11-.85.11-.13,0-.34-.02-.61-.05s-.52-.23-.74-.59l-.13-.25c-.08-.19-.15-.28-.21-.28-.07,0-.19.12-.37.36-.67.81-1.46,1.49-2.38,2.05-.49.27-.96.45-1.42.52-.09.02-.18.03-.27.03Z" style="fill:#42210b;"/></svg>
